<svg xmlns="http://www.w3.org/2000/svg" viewBox="0 0 256 257">
  <defs>
    <linearGradient id="a" x1="-.828%" x2="57.636%" y1="7.652%" y2="78.411%">
      <stop offset="0%" stop-color="#41D1FF"/>
      <stop offset="100%" stop-color="#BD34FE"/>
    </linearGradient>
    <linearGradient id="b" x1="43.376%" x2="50.316%" y1="2.242%" y2="89.03%">
      <stop offset="0%" stop-color="#FFEA83"/>
      <stop offset="8.333%" stop-color="#FFDD35"/>
      <stop offset="100%" stop-color="#FFA800"/>
    </linearGradient>
  </defs>
  <path fill="url(#a)" d="M255.153 37.938L134.897 252.976c-2.483 4.44-8.862 4.595-11.58.28L.875 94.84c-2.976-4.67.724-10.76 6.012-9.612l62.25 13.519a6.537 6.537 0 007.377-3.28L155.38 4.665c2.842-5.555 10.93-3.957 11.178 2.283l3.35 84.502a6.534 6.534 0 005.18 6.032l72.972 14.471c5.5 1.09 7.544 7.912 3.54 11.932z"/>
  <path fill="url(#b)" d="M185.432 19.633l-86.4 176.28a3.268 3.268 0 01-5.744.232L51.4 135.64a3.268 3.268 0 012.068-4.76l24.677-6.243a3.268 3.268 0 002.348-2.434l19.339-86.74a3.268 3.268 0 015.986-.94l13.66 27.586a3.268 3.268 0 002.645 1.79l28.585 2.086a3.268 3.268 0 012.626 4.79z"/>
</svg>

