<svg xmlns="http://www.w3.org/2000/svg" viewBox="0 0 841.9 595.3">
  <g fill="#61DAFB">
    <path d="M666.3 296.5c0 32.5-40.7 63.3-103.1 82.4 14.4 63.6 8 114.2-20.2 130.4-6.5 3.8-14.1 5.6-22.4 5.6v-24.6c4.9 0 8.9-1 12.1-2.8 13.6-7.8 18.5-38.5 12.3-76.7-1-6-2.3-12.2-3.8-18.6-19 4.7-39.7 8.2-61.7 10.3-13.1 18-26.6 34-40.3 47.7 28.4 26.4 55.5 40.8 77.1 40.8v24.6c-29.7 0-63.2-17.5-96.9-47.9-33.7 30.4-67.2 47.9-96.9 47.9v-24.6c21.6 0 48.7-14.4 77.1-40.8-13.7-13.7-27.2-29.7-40.3-47.7-22-2.1-42.7-5.6-61.7-10.3-1.5 6.4-2.8 12.6-3.8 18.6-6.2 38.2-1.3 68.9 12.3 76.7 3.2 1.8 7.2 2.8 12.1 2.8v24.6c-8.3 0-15.9-1.8-22.4-5.6-28.1-16.2-34.6-66.8-20.2-130.4-62.4-19.1-103.1-49.9-103.1-82.4s40.7-63.3 103.1-82.4c-14.4-63.6-8-114.2 20.2-130.4 6.5-3.8 14.1-5.6 22.4-5.6 29.7 0 63.2 17.5 96.9 47.9 33.7-30.4 67.2-47.9 96.9-47.9 8.3 0 15.9 1.8 22.4 5.6 28.1 16.2 34.6 66.8 20.2 130.4 62.4 19.1 103.1 49.9 103.1 82.4zM421 338.3c23.3 0 42.1-18.8 42.1-42.1S444.3 254 421 254s-42.1 18.8-42.1 42.1 18.8 42.2 42.1 42.2zM520.5 78.1c-4.9-2.8-10.9-4.2-17.7-4.2-22.6 0-52.8 13.7-82.4 38.7 12.9 12.6 25.4 26.8 37.3 42.3 32.6 4.6 63.1 11.3 90.4 19.8 7.3-45.4 2.6-78.7-10.5-86.6zM310 73.9c-6.8 0-12.8 1.4-17.7 4.2-13.1 7.9-17.8 41.2-10.5 86.6 27.3-8.5 57.8-15.2 90.4-19.8 11.9-15.5 24.4-29.7 37.3-42.3-29.6-25-59.8-38.7-82.4-38.7zM141.5 296.5c0 21.4 32.9 45.2 87.3 61.1-5.5-27.1-6.9-55.2-4.1-83.4-52.3 15.2-83.2 36.9-83.2 22.3zM292.4 430.5c13.1-7.9 17.8-41.2 10.5-86.6-27.3 8.5-57.8 15.2-90.4 19.8-7.3 45.4-2.6 78.7 10.5 86.6 4.9 2.8 10.9 4.2 17.7 4.2 22.6 0 52.8-13.7 82.4-38.7-12.9-12.6-25.4-26.8-37.3-42.3-32.6-4.6-63.1-11.3-90.4-19.8-7.3 45.4-2.6 78.7 10.5 86.6 4.9 2.8 10.9 4.2 17.7 4.2 22.6 0 52.8-13.7 82.4-38.7zM421 404.4c-11.3 12.2-22.7 23.2-34 32.9 11.1 9.8 22.3 18.5 33.5 25.9 11.2-7.4 22.4-16.1 33.5-25.9-11.3-9.7-22.7-20.7-33-32.9zM613 357.6c-32.6-8.5-69.5-15-109.2-19.3-12.8 17.5-26.2 33.6-40 47.3 29.7 26.2 59.5 40.8 81.4 40.8 6.8 0 12.8-1.4 17.7-4.2 13.1-7.9 17.8-41.2 10.5-86.6zM704.6 296.5c0-14.6-30.9 7.1-83.2-22.3 2.8 28.1 1.4 56.3-4.1 83.4 54.4-15.9 87.3-39.7 87.3-61.1z"/>
  </g>
</svg>

